<?xml version="1.0" encoding="utf-8"?>
<svg viewBox="548.683 95.7852 151.2278 126.2024" width="151.2278" height="126.2024" xmlns="http://www.w3.org/2000/svg">
  <defs>
    <linearGradient id="eem-logo-color-a" x1="42.104%" x2="58.592%" y1="99.404%" y2="-5.012%">
      <stop offset="0" stop-color="#0092A4"/>
      <stop offset="0.1202" stop-color="#00879E"/>
      <stop offset="0.3752" stop-color="#006789"/>
      <stop offset="0.7414" stop-color="#1D3568"/>
      <stop offset="0.8893" stop-color="#29235C"/>
      <stop offset="1" stop-color="#29235C"/>
    </linearGradient>
    <linearGradient id="eem-logo-color-b" x1="50.014%" x2="50.014%" y1="-.174%" y2="99.95%">
      <stop offset="0" stop-color="#0092A5"/>
      <stop offset="0.2758" stop-color="#0098B6"/>
      <stop offset="0.8592" stop-color="#2FA8DF"/>
      <stop offset="0.8893" stop-color="#36A9E1"/>
      <stop offset="1" stop-color="#36A9E1"/>
    </linearGradient>
  </defs>
  <g fill="none" transform="matrix(1, 0, 0, 1, 548.3834838867188, 95.28522491455078)">
    <path fill="url(#eem-logo-color-a)" d="M145.2,0.9 C141.9,1.5 130,15.8 104.2,21.9 C78.9,27.9 81.8,48.6 109.7,59.8 C110.8,60.3 110.9,61.3 110.9,61.6 C110.9,62 110.8,62.9 109.7,63.3 C109.3,63.4 108.9,63.6 108.4,63.7 C104,64.9 97.2,66 91.7,66.8 C89.5,67.1 87.4,67.5 85.8,67.7 C74,69.8 51.1,77.8 49.2,93 C47.8,104.2 53.1,123.9 98.5,126.6 C106.1,127.1 124.9,125.8 131.7,122 C131.7,122 131.7,122 131.8,122 C134.1,120.9 135.2,118.6 134.7,116.2 C134.2,113.7 132.1,111.8 129.4,111.7 L123.9,111.3 C98.5,109.7 66.2,107 72.7,84.5 C73.7,80.9 78.6,76 95,73.4 C95.7,73.3 113.4,70.4 121.8,67 C123.3,66.4 124.4,65.7 125.4,65.1 C125.7,64.9 126,64.7 126.4,64.5 C129.8,62.5 131.6,60 131.8,57.1 C132.2,50.7 124.3,44.7 118.6,40.3 C116.8,39 115.2,37.7 114.5,37 C113.2,35.5 112.7,34 113.1,32.7 C113.5,31.4 114.9,30.3 116.9,29.8 C126.3,27.3 144,23.7 150.1,9.7 C150.3,9.2 152.7,5.1 150.8,2.3 C150.2,1.4 149,0.5 146.9,0.5 C146.3,0.7 145.8,0.8 145.2,0.9"/>
    <path fill="url(#eem-logo-color-b)" d="M22,23.9 C22,23.9 22,23.9 22,23.9 C20.5,24.4 19.6,25.7 19.7,27.3 C19.8,28.9 21,30.2 22.6,30.5 L26,31.2 C41.6,34.3 61.4,38.5 55.6,51.9 C54.7,54 51.3,56.7 40.9,57 C40.4,57 29.2,57.4 23.8,58.8 C22.8,59.1 22.1,59.4 21.4,59.7 C21.2,59.8 21,59.9 20.8,60 C18.5,61 17.2,62.4 16.9,64.1 C16.2,68 20.5,72.4 23.7,75.5 C24.7,76.5 25.6,77.4 25.9,77.9 C26.6,78.9 26.8,79.9 26.4,80.7 C26,81.5 25.1,82 23.8,82.2 C17.8,83 6.5,83.8 1.6,92 C1.4,92.3 -0.4,94.6 0.6,96.5 C1,97.2 1.8,98.1 3.9,98 C6,97.9 14.5,90 31,88.3 C47.1,86.6 47,73.6 30.7,64.4 C30,64 30.1,63.4 30.1,63.2 C30.1,63 30.3,62.4 31,62.3 C31.3,62.2 31.5,62.2 31.8,62.2 C34.6,61.8 39,61.7 42.4,61.6 C43.8,61.6 45.1,61.5 46.1,61.5 C53.6,61.2 68.4,58 70.8,48.7 C72.5,41.9 70.8,29.3 43,23.9 C40.4,23.4 35.7,23 31.2,23 C27.5,22.8 24.1,23.1 22,23.9"/>
  </g>
</svg>